Coordinates
version=1
nRows=29
nColumns=22
inDegrees=yes

Units are S.I. units (second, meters, Newtons, ...)
If the header above contains a line with 'inDegrees', this indicates whether rotational values are in degrees (yes) or radians (no).

endheader
time	pelvis_tilt	pelvis_list	pelvis_rotation	pelvis_tx	pelvis_ty	pelvis_tz	hip_flexion_r	hip_adduction_r	hip_rotation_r	knee_angle_r	ankle_angle_r	subtalar_angle_r	hip_flexion_l	hip_adduction_l	hip_rotation_l	knee_angle_l	ankle_angle_l	subtalar_angle_l	lumbar_extension	lumbar_bending	lumbar_rotation
      4.21000000	      5.74734048	     -4.99346708	      5.99379353	      0.31935131	      1.08249325	     -0.30357023	      2.50677439	      9.15600846	     -6.90364985	     -9.63586710	      5.33131590	     -1.82623677	     10.43271471	     -8.55590310	      4.27993389	    -50.16211783	     13.05123768	      2.69133426	     -6.69041829	      3.93084854	     -3.24791945
      4.22000000	      5.76946584	     -4.91854270	      5.89021743	      0.32340823	      1.08293516	     -0.30293440	      2.09555352	      9.15537109	     -6.71816963	     -9.38475316	      5.37977668	     -1.96636398	     10.57223557	     -8.44758981	      4.28270045	    -48.99624847	     13.44746413	      2.60006851	     -6.78074114	      3.83251795	     -2.95725212
      4.23000000	      5.76655211	     -4.84783577	      5.79097417	      0.32736767	      1.08329202	     -0.30236138	      1.73532500	      9.14762704	     -6.55067237	     -9.16826560	      5.42751833	     -2.12396344	     10.70552926	     -8.33744484	      4.27277552	    -47.79098322	     13.84899139	      2.56048532	     -6.83826322	      3.74053428	     -2.69449607
      4.24000000	      5.75410614	     -4.77781103	      5.69304951	      0.33120575	      1.08359475	     -0.30184221	      1.40699315	      9.13316744	     -6.38458029	     -8.97912224	      5.45945102	     -2.31921795	     10.81662183	     -8.21218327	      4.27755263	    -46.56286965	     14.25296005	      2.57946547	     -6.88685584	      3.64893482	     -2.44571997
      4.25000000	      5.73038393	     -4.70574235	      5.59539199	      0.33493811	      1.08385283	     -0.30138794	      1.11349468	      9.10803310	     -6.22525826	     -8.82154648	      5.48685269	     -2.54172320	     10.90640059	     -8.06984711	      4.29186315	    -45.32219382	     14.65858211	      2.66102634	     -6.91922688	      3.55742122	     -2.20843775
      4.26000000	      5.69741526	     -4.63067248	      5.49470297	      0.33856286	      1.08407660	     -0.30098752	      0.85466643	      9.07236592	     -6.07293460	     -8.69839864	      5.51786784	     -2.77133292	     10.97282858	     -7.90711823	      4.32470271	    -44.08285075	     15.05924708	      2.80109194	     -6.94018684	      3.46341547	     -1.98708123
      4.27000000	      5.65428795	     -4.55121563	      5.39210242	      0.34209521	      1.08427436	     -0.30064928	      0.62865578	      9.02459672	     -5.92954493	     -8.60547407	      5.56219935	     -2.98070699	     11.01755085	     -7.71920724	      4.38589588	    -42.85641314	     15.45598163	      2.98690394	     -6.94456792	      3.36525016	     -1.78421242
      4.28000000	      5.61269960	     -4.46520811	      5.28769395	      0.34553988	      1.08447192	     -0.30038499	      0.42048367	      8.96347964	     -5.78991970	     -8.53983129	      5.62030892	     -3.17457546	     11.02777896	     -7.50218082	      4.48518594	    -41.65500359	     15.83708049	      3.22822381	     -6.94623958	      3.26390466	     -1.59419479
      4.29000000	      5.56007923	     -4.36919397	      5.18683426	      0.34891755	      1.08465340	     -0.30020884	      0.23859640	      8.88263858	     -5.66247590	     -8.49499821	      5.70442573	     -3.32537723	     11.02077280	     -7.25182349	      4.62605652	    -40.49310731	     16.20968054	      3.48933018	     -6.92567229	      3.15519598	     -1.43281250
      4.30000000	      5.51628336	     -4.26574059	      5.08947097	      0.35221377	      1.08485064	     -0.30011416	      0.06179307	      8.78869204	     -5.53826118	     -8.46909794	      5.79515934	     -3.46111378	     10.97685388	     -6.96997163	      4.82693988	    -39.38033559	     16.55618645	      3.80513292	     -6.91126281	      3.04346155	     -1.29001323
      4.31000000	      5.47245476	     -4.15625650	      4.99876851	      0.35544085	      1.08504852	     -0.30009457	     -0.10423792	      8.68243226	     -5.42349352	     -8.45598073	      5.89526801	     -3.57080211	     10.90999522	     -6.66163206	      5.08615961	    -38.32689590	     16.88189185	      4.14911902	     -6.89001499	      2.92828042	     -1.17646612
      4.32000000	      5.42573447	     -4.03965325	      4.91566928	      0.35860918	      1.08523590	     -0.30014667	     -0.26003121	      8.56279412	     -5.32068974	     -8.45067387	      6.00818363	     -3.65391738	     10.82602856	     -6.33128011	      5.39514217	    -37.33872867	     17.18444639	      4.50635330	     -6.85801664	      2.80826884	     -1.08889994
      4.33000000	      5.37856079	     -3.92174859	      4.83578864	      0.36171237	      1.08541225	     -0.30022829	     -0.40843620	      8.43840698	     -5.22780441	     -8.45119111	      6.12548858	     -3.71446672	     10.72510042	     -5.99478296	      5.74052845	    -36.41800995	     17.46434508	      4.87978563	     -6.82007128	      2.68572949	     -1.02784598
      4.34000000	      5.33259743	     -3.81725147	      4.75737496	      0.36474187	      1.08556761	     -0.30030297	     -0.55488266	      8.32870614	     -5.13287998	     -8.44545212	      6.22536483	     -3.75229286	     10.61143848	     -5.67751865	      6.10519817	    -35.56731043	     17.73905320	      5.28411622	     -6.78182221	      2.57097172	     -0.98832285
      4.35000000	      5.24874966	     -3.70196264	      4.68206575	      0.36773189	      1.08564423	     -0.30040235	     -0.65188027	      8.19920472	     -5.08658964	     -8.45403158	      6.37871442	     -3.75638355	     10.52501472	     -5.35657149	      6.45538583	    -34.77983262	     17.93576466	      5.53852603	     -6.69034876	      2.43738674	     -0.95490104
      4.36000000	      5.17374974	     -3.60625632	      4.60501014	      0.37065441	      1.08570640	     -0.30049183	     -0.75325672	      8.09069452	     -5.03906854	     -8.46087810	      6.51001963	     -3.74124267	     10.42054577	     -5.07698878	      6.77814915	    -34.05097050	     18.10355399	      5.80550041	     -6.60680142	      2.32355736	     -0.93758651
      4.37000000	      5.09163291	     -3.53146932	      4.52668070	      0.37351957	      1.08572427	     -0.30055673	     -0.84324481	      8.00473573	     -4.99525431	     -8.46379394	      6.63430750	     -3.70529989	     10.31688902	     -4.84727605	      7.04303255	    -33.37154966	     18.22374832	      6.01585836	     -6.51232316	      2.22358770	     -0.93077060
      4.38000000	      4.98544777	     -3.49110766	      4.44742188	      0.37633498	      1.08566858	     -0.30061475	     -0.90821743	      7.95415135	     -4.93304464	     -8.45363156	      6.73381279	     -3.67182159	     10.23583782	     -4.68087689	      7.24269548	    -32.73759154	     18.31070512	      6.10153902	     -6.38481674	      2.15761918	     -0.94427665
      4.39000000	      4.89637247	     -3.45225804	      4.36901045	      0.37912112	      1.08561736	     -0.30070267	     -0.98237906	      7.90245955	     -4.90125991	     -8.45777777	      6.86584966	     -3.61853984	     10.11737217	     -4.54891893	      7.35394117	    -32.11474299	     18.28535949	      6.15941895	     -6.27104833	      2.09445586	     -0.94411559
      4.40000000	      4.80307857	     -3.43814295	      4.28686885	      0.38187758	      1.08553059	     -0.30077797	     -1.05569290	      7.87785789	     -4.84706702	     -8.44895447	      6.98466314	     -3.56328917	      9.98694440	     -4.47379814	      7.38901792	    -31.49694694	     18.19943815	      6.12663536	     -6.15015638	      2.05168079	     -0.95955344
      4.41000000	      4.73915397	     -3.44056878	      4.19494137	      0.38462917	      1.08546148	     -0.30086823	     -1.16435517	      7.87086000	     -4.80028048	     -8.42907005	      7.10964959	     -3.48214226	      9.79645983	     -4.44972765	      7.32644097	    -30.85920181	     18.02926943	      5.90596407	     -6.05677266	      2.02587465	     -0.94985769
      4.42000000	      4.66739361	     -3.46228942	      4.11540911	      0.38735023	      1.08535704	     -0.30103193	     -1.26866906	      7.88166204	     -4.72426527	     -8.39774435	      7.21916620	     -3.42602135	      9.59353204	     -4.46103201	      7.22739762	    -30.20292225	     17.77197072	      5.58205430	     -5.94932902	      2.02738388	     -0.97529682
      4.43000000	      4.60120548	     -3.49167042	      4.04284019	      0.39006419	      1.08524688	     -0.30125788	     -1.38887098	      7.89849544	     -4.64801088	     -8.34525033	      7.31944909	     -3.37763004	      9.35805398	     -4.49837711	      7.07616857	    -29.51847977	     17.41576325	      5.18500407	     -5.84170566	      2.03870436	     -1.01399074
      4.44000000	      4.55704274	     -3.53249456	      3.98317494	      0.39275704	      1.08515422	     -0.30156523	     -1.54014417	      7.92609326	     -4.57072385	     -8.27609465	      7.41334727	     -3.32447446	      9.07168044	     -4.55833696	      6.90497774	    -28.80283130	     16.96122591	      4.66205843	     -5.75611547	      2.06890022	     -1.07252118
      4.45000000	      4.53706190	     -3.59122961	      3.94531146	      0.39540219	      1.08507404	     -0.30196676	     -1.71800281	      7.97130971	     -4.50130593	     -8.19889065	      7.51610567	     -3.26763506	      8.74102673	     -4.64162136	      6.73566414	    -28.07049978	     16.43132987	      4.01736061	     -5.69759998	      2.12712620	     -1.16794207
      4.46000000	      4.50745823	     -3.62786571	      3.91497972	      0.39804577	      1.08498785	     -0.30244044	     -1.90933276	      7.98977169	     -4.44313131	     -8.07762800	      7.59308128	     -3.21316790	      8.39041223	     -4.70358685	      6.55606646	    -27.31783000	     15.84033793	      3.36153350	     -5.62120912	      2.15711944	     -1.25983561
      4.47000000	      4.49528839	     -3.67612792	      3.91351580	      0.40063384	      1.08490653	     -0.30301401	     -2.12243781	      8.02003557	     -4.40086284	     -7.94299138	      7.67376668	     -3.16263286	      8.01395993	     -4.77440867	      6.40461774	    -26.58228872	     15.23952617	      2.64933583	     -5.56420618	      2.20838259	     -1.39296386
      4.48000000	      4.47372646	     -3.70773144	      3.93162214	      0.40318169	      1.08481549	     -0.30365244	     -2.33917715	      8.03163863	     -4.38166721	     -7.77787594	      7.73701664	     -3.12038473	      7.63667447	     -4.82456750	      6.27126872	    -25.87022797	     14.68146570	      1.99453035	     -5.49542745	      2.23633966	     -1.54767503
      4.49000000	      4.46453123	     -3.74632898	      3.97330008	      0.40564875	      1.08473545	     -0.30437875	     -2.56515519	      8.05015035	     -4.37027613	     -7.61262720	      7.82427452	     -3.08531332	      7.25082218	     -4.87690421	      6.17240377	    -25.20876512	     14.22057986	      1.38406004	     -5.44293860	      2.28001908	     -1.73410820
